<?xml version="1.0" standalone="no"?>
<!DOCTYPE svg PUBLIC "-//W3C//DTD SVG 1.1//EN" "http://www.w3.org/Graphics/SVG/1.1/DTD/svg11.dtd" >
<svg xmlns="http://www.w3.org/2000/svg" xmlns:xlink="http://www.w3.org/1999/xlink" version="1.1">
<metadata></metadata>
<defs>
<font id="kollektifregular" horiz-adv-x="1499" >
<font-face units-per-em="2048" ascent="1657" descent="-391" />
<missing-glyph horiz-adv-x="534" />
<glyph unicode="&#xfb01;" horiz-adv-x="1021" d="M41 803v137l168 41v119q2 111 32.5 187.5t80 124.5t113 69.5t132.5 21.5q92 0 179.5 -26.5t164.5 -83.5l-84 -115q-45 16 -88 31q-37 12 -81 22t-78 10q-72 0 -122 -45t-50 -166v-149h534v-981h-199v803h-335v-803h-199v803h-168z" />
<glyph unicode="&#xfb02;" horiz-adv-x="1017" d="M35 803v137l168 41v104q2 129 42 210t102.5 127t144 63.5t167.5 17.5q70 0 138.5 -7t134.5 -17v-1479h-199v1333q-23 2 -44 3t-44 1q-47 0 -90 -9t-78 -33.5t-55.5 -67.5t-20.5 -111v-135h222v-178h-222v-803h-198v803h-168z" />
<glyph unicode="&#xfb03;" horiz-adv-x="1691" d="M59 803v137l168 41v119q0 104 27 181t73 126t106.5 72.5t127.5 23.5q82 0 168 -35v-145q-74 23 -127 23q-84 0 -130 -51.5t-46 -164.5v-149h448v119q2 111 33 187.5t80 124.5t112.5 69.5t133.5 21.5q92 0 179 -26.5t165 -83.5l-84 -115q-45 16 -88 31q-37 12 -81 22 t-79 10q-72 0 -122 -45t-50 -166v-149h535v-981h-199v803h-336v-803h-199v803h-448v-803h-199v803h-168z" />
<glyph unicode="&#xfb04;" horiz-adv-x="1705" d="M55 803v137l168 41v119q0 104 26.5 181t73 126t105.5 72.5t127 23.5q84 0 170 -35v-145q-74 23 -127 23q-84 0 -130 -51.5t-46 -164.5v-149h469v104q2 129 42 210t102.5 127t144.5 63.5t168 17.5q70 0 138 -7t134 -17v-1479h-199v1333q-23 2 -44 3t-44 1q-47 0 -90 -9 t-78 -33.5t-55 -67.5t-20 -111v-135h221v-178h-221v-803h-199v803h-469v-803h-199v803h-168z" />
<glyph horiz-adv-x="0" />
<glyph horiz-adv-x="682" />
<glyph unicode=" "  horiz-adv-x="534" />
<glyph unicode="&#x09;" horiz-adv-x="534" />
<glyph unicode="&#xa0;" horiz-adv-x="534" />
<glyph unicode="!" horiz-adv-x="528" d="M139 106q0 53 38 91.5t91 38.5t90 -38t37 -92q0 -53 -37 -89.5t-90 -36.5t-91 36.5t-38 89.5zM152 1452h231l-25 -1116h-180z" />
<glyph unicode="&#x22;" horiz-adv-x="778" d="M86 1448h229l-32 -502h-164zM461 1448h231l-35 -502h-163z" />
<glyph unicode="#" d="M41 315v138h328l71 424h-311v137h334l55 338l133 -23l-51 -311h416l57 334l133 -23l-53 -311l305 2v-137h-328l-71 -424h311v-137h-334l-55 -338l-133 22l51 311h-416l-55 -333l-133 22l51 309h-305zM506 457h416l71 424h-415z" />
<glyph unicode="$" horiz-adv-x="1011" d="M41 238l164 86q35 -64 119 -103q55 -27 127 -33v433q-86 23 -146 49q-72 31 -121 73q-117 94 -116 252q0 78 30 146q33 72 86 119q61 53 135 75q66 20 132 23v158h133v-162q88 -12 157 -45q113 -53 172 -148l-149 -92q-57 66 -125 90q-14 6 -27.5 9t-27.5 8v-394 q41 -10 73.5 -22t61.5 -25q39 -16 70.5 -34.5t58.5 -41.5q123 -102 123 -266q0 -82 -35 -155q-35 -74 -98 -125q-51 -45 -115 -70t-139 -35v-176h-133v174q-121 8 -226 62q-127 66 -184 170zM260 999q0 -25 6 -49q10 -27 37 -53q14 -12 33.5 -25.5t48.5 -25.5 q14 -6 29.5 -12.5t36.5 -12.5v363q-16 -2 -32 -6t-32 -9q-23 -10 -42 -21t-36 -24q-25 -23 -37 -55q-12 -35 -12 -70zM584 190q195 25 194 201q0 41 -14 68q-10 25 -41 51q-23 18 -57.5 35.5t-81.5 34.5v-390z" />
<glyph unicode="%" horiz-adv-x="1413" d="M59 1151q0 63 25 120.5t67 100.5t98 67.5t122 24.5q63 0 120.5 -24.5t100.5 -67.5t67.5 -100.5t24.5 -120.5q0 -66 -24.5 -122t-67.5 -98t-100.5 -66.5t-120.5 -24.5q-66 0 -122 24.5t-98 66.5t-67 98t-25 122zM195 1151q0 -37 14 -68.5t37.5 -55t55.5 -38t69 -14.5 t69.5 14.5t56 38t38 55t14.5 68.5q0 74 -52 126t-126 52q-37 0 -69 -14.5t-55.5 -38t-37.5 -56t-14 -69.5zM211 18l883 1489l116 -69l-882 -1489zM725 287q0 63 24.5 120.5t66.5 99.5t98.5 66.5t121.5 24.5q63 0 120.5 -24.5t100.5 -66.5t68 -99.5t25 -120.5q0 -66 -25 -122 t-68 -98t-100 -67t-121 -25q-66 0 -122 25t-98 67t-66.5 98t-24.5 122zM860 287q0 -37 14.5 -70t38 -56.5t55 -37.5t68.5 -14q74 0 126 52t52 126t-52 125t-126 51q-37 0 -68.5 -13.5t-55 -38t-38 -56t-14.5 -68.5z" />
<glyph unicode="&#x26;" horiz-adv-x="1366" d="M86 332q0 76 22.5 139.5t61.5 117.5t90 101t109 90q-61 72 -125 140.5t-125 138.5v14q0 86 35.5 161t93 129t131.5 85t151 31q74 0 144.5 -29t125 -78t88.5 -114.5t34 -141.5q0 -16 -2.5 -32.5t-4.5 -32.5q-6 -39 -29.5 -76t-58 -73t-80 -72.5t-90.5 -75.5 q41 -45 80 -90.5t80 -88.5l154 -165q57 53 111.5 113.5t105.5 125.5l147 -131q-57 -72 -114.5 -133t-122.5 -121l245 -268h-264q-23 23 -42 43t-36 41l-53 61q-4 -4 -7 -5t-7 -5q-45 -33 -89 -63.5t-95.5 -54t-113 -38t-138.5 -14.5q-80 0 -155 24.5t-131 71.5t-91 116 t-35 159zM289 340q0 -100 58.5 -147.5t141.5 -47.5q35 0 70 8.5t64 20.5q104 43 194 109q-53 59 -106.5 118.5t-106.5 118.5l-108 119q-39 -29 -76 -61.5t-66.5 -69.5t-47 -79t-17.5 -89zM330 1112l196 -217q29 20 56.5 43t52.5 43q2 2 13 11t14 12q25 20 39 38.5t18 53.5 v10q0 35 -15.5 67.5t-41 58t-59.5 41t-71 15.5q-72 0 -129 -50t-73 -126z" />
<glyph unicode="'" horiz-adv-x="532" d="M154 1452h225l-41 -504h-160z" />
<glyph unicode="(" horiz-adv-x="579" d="M88 641q0 262 70.5 493.5t197.5 421.5l164 -40q-123 -180 -193.5 -402.5t-70.5 -472.5q0 -254 70.5 -477t195.5 -404l-160 -43q-129 193 -201.5 427.5t-72.5 496.5z" />
<glyph unicode=")" horiz-adv-x="618" d="M47 -240q125 180 196.5 403.5t71.5 477.5q0 250 -68.5 472t-191.5 403l160 40q127 -190 197.5 -421.5t70.5 -493.5t-71.5 -496.5t-200.5 -427.5z" />
<glyph unicode="*" horiz-adv-x="847" d="M41 1108l49 160l287 -117l-37 297h168l-35 -293l285 113l49 -160l-295 -59l211 -232l-133 -100l-166 287l-162 -285l-135 98l227 236z" />
<glyph unicode="+" horiz-adv-x="1062" d="M16 535v135h441v448h24h127h8v-448h431v-135h-431v-449h-8h-127h-24v449h-441z" />
<glyph unicode="," horiz-adv-x="598" d="M88 -262l68 504h231l-133 -504h-166z" />
<glyph unicode="-" horiz-adv-x="788" d="M94 535v135h602v-135h-602z" />
<glyph unicode="." horiz-adv-x="489" d="M88 106q0 53 37 91.5t90 38.5t90 -38t37 -92q0 -53 -37 -89.5t-90 -36.5t-90 36.5t-37 89.5z" />
<glyph unicode="/" horiz-adv-x="1024" d="M12 18l883 1489l117 -69l-883 -1489z" />
<glyph unicode="0" horiz-adv-x="1187" d="M74 629v178q0 147 36.5 268t102.5 209q66 90 161 138t210 48q113 0 208 -47t160 -137q66 -88 105 -210t39 -269v-178q0 -141 -40 -259t-108 -206q-70 -88 -162.5 -136t-201.5 -48q-106 0 -199.5 50t-165.5 142q-68 90 -106.5 207t-38.5 250zM283 629q0 -100 24.5 -186.5 t71.5 -147.5q41 -53 93 -83t112 -30q68 0 123 33t95 91.5t62.5 140t22.5 182.5v178q0 233 -94 358q-80 102 -209 103q-131 0 -211 -105q-90 -121 -90 -356v-178z" />
<glyph unicode="1" horiz-adv-x="612" d="M59 1260v192h410v-1452h-215v1260h-195z" />
<glyph unicode="2" horiz-adv-x="1128" d="M92 0v143l418 475q94 113 149.5 176.5t84 102.5t36.5 67.5t8 73.5q0 115 -67.5 173.5t-163.5 58.5q-49 0 -91 -19.5t-74 -52.5t-50 -74t-18 -86h-209q0 88 34.5 167t95 138.5t140.5 94.5t172 35t172 -35t139.5 -94.5t94 -138.5t34.5 -167q0 -66 -17 -128t-56 -109 l-514 -602h618v-199h-936z" />
<glyph unicode="3" horiz-adv-x="1105" d="M66 336l188 72q14 -47 43 -89.5t69 -73t88 -47t101 -14.5q57 2 108.5 28t89.5 68t61.5 94t25.5 111q2 61 -19.5 116.5t-61.5 97.5t-93.5 68t-114.5 28q-20 0 -41 -4.5t-41 -10.5l-80 103l254 377h-438v192h715v-137q-70 -102 -123 -182q-23 -35 -45.5 -67t-39 -58.5 t-21.5 -33.5l-15 -24q96 -8 164.5 -49t113.5 -103.5t65.5 -141t20.5 -160.5q0 -102 -39.5 -195.5t-107.5 -164t-158 -113.5t-192 -43q-84 0 -160 27.5t-137.5 75.5t-108.5 113.5t-71 139.5z" />
<glyph unicode="4" horiz-adv-x="1314" d="M88 371l760 1081h170v-993h233v-193h-233v-266h-215v266h-647zM395 459h404v583z" />
<glyph unicode="5" horiz-adv-x="1101" d="M39 285l176 100q14 -47 47 -86q41 -53 102.5 -84t133.5 -31q61 0 115.5 23.5t95.5 64.5t64.5 95.5t23.5 115.5q0 78 -34 144.5t-93 107.5q-25 18 -61 31.5t-78 17.5t-86 0t-85 -22q-45 -20 -77 -53l-123 82l76 661h634v-192h-456l-33 -312q109 35 219.5 20.5t185.5 -69.5 q100 -70 155.5 -179.5t55.5 -236.5q0 -104 -38.5 -195t-106.5 -160t-159 -108.5t-195 -39.5q-119 0 -220.5 53t-171.5 139q-41 47 -67 113z" />
<glyph unicode="6" horiz-adv-x="1165" d="M88 483q0 72 21.5 137.5t54.5 131.5q8 14 28.5 53t48 91t60.5 113.5t68 123.5q80 143 174 319h225l-268 -489q106 27 205.5 8t173.5 -72q98 -70 154.5 -179.5t56.5 -236.5q0 -104 -40 -195t-108 -160t-159 -108.5t-195 -39.5t-195.5 39.5t-159 108.5t-106.5 160t-39 195z M289 483q0 -61 23.5 -116.5t64.5 -96.5t95 -65.5t116 -24.5q61 0 116.5 24.5t95.5 65.5t63.5 96.5t23.5 116.5q0 78 -33 144.5t-92 107.5q-37 27 -87 42.5t-104.5 13t-107.5 -22.5t-96 -68l-7 -12q-27 -53 -49 -110.5t-22 -94.5z" />
<glyph unicode="7" horiz-adv-x="991" d="M61 1260v192h834v-2v-96l-563 -1354h-232l523 1260h-562z" />
<glyph unicode="8" horiz-adv-x="1054" d="M68 442q0 106 48 199.5t140 149.5q-68 53 -98.5 123.5t-30.5 148.5q0 82 31.5 155.5t87 130t129.5 89t155 32.5q82 0 155 -32.5t128 -89t87 -130t32 -155.5q0 -78 -34 -148.5t-93 -123.5q39 -25 73.5 -63t59.5 -84t39 -97t14 -105q0 -94 -36.5 -178t-100 -147.5 t-146.5 -100t-178 -36.5q-94 0 -178 36.5t-147.5 100t-100 147.5t-36.5 178zM283 442q0 -51 19.5 -98t52 -84t77.5 -58.5t98 -21.5q51 0 96.5 21.5t78 58.5t52 84t19.5 98q0 80 -42 142.5t-109 91.5q-47 18 -95 18q-51 0 -94 -18q-70 -29 -111.5 -91.5t-41.5 -142.5z M338 1063q0 -57 28.5 -103.5t75.5 -70.5q39 -20 88 -21q49 0 88 21q47 25 75 71t28 103q0 41 -14.5 79t-41 66.5t-61.5 46t-74 17.5q-41 0 -75.5 -17.5t-61 -46t-41 -66.5t-14.5 -79z" />
<glyph unicode="9" horiz-adv-x="1138" d="M66 975q0 104 39.5 194.5t107.5 157t159 105t195 38.5q102 0 193.5 -38.5t159 -105t107.5 -157t40 -194.5q0 -72 -22.5 -137.5t-55.5 -130.5q-8 -16 -28.5 -55.5t-49 -91.5t-62.5 -114.5t-69 -123.5q-82 -145 -178 -322h-223l276 498q-106 -27 -205.5 -9.5t-173.5 70.5 q-98 72 -154 181.5t-56 234.5zM266 975q0 -78 34 -144.5t93 -107.5q37 -27 87 -42t103.5 -13t106.5 22.5t96 67.5l9 12q27 53 49 110.5t22 94.5q0 61 -23.5 116.5t-64.5 95.5t-95.5 63.5t-115.5 23.5t-116.5 -23.5t-96.5 -63.5t-64.5 -95.5t-23.5 -116.5z" />
<glyph unicode=":" horiz-adv-x="622" d="M162 106q0 53 37 91.5t90 38.5t90 -38t37 -92q0 -53 -37 -89.5t-90 -36.5t-90 36.5t-37 89.5zM162 741q0 53 37 91t90 38t91 -37.5t38 -91.5q0 -53 -38 -90t-91 -37t-90 37t-37 90z" />
<glyph unicode=";" horiz-adv-x="561" d="M88 -262l68 504h231l-133 -504h-166zM150 741q0 53 36.5 91t89.5 38t91.5 -37.5t38.5 -91.5q0 -53 -38.5 -90t-91.5 -37t-89.5 37t-36.5 90z" />
<glyph unicode="&#x3c;" horiz-adv-x="987" d="M12 418v149l885 428v-149l-731 -352l731 -355v-149z" />
<glyph unicode="=" horiz-adv-x="1060" d="M94 330v133h873v-133h-873zM94 754v135h873v-135h-873z" />
<glyph unicode="&#x3e;" horiz-adv-x="991" d="M94 -10v149l729 355l-729 352v149l885 -428v-149z" />
<glyph unicode="?" horiz-adv-x="948" d="M88 1397q121 74 270 73q104 0 195.5 -36.5t159 -99t106.5 -146.5t39 -178q0 -231 -231 -371q-37 -23 -77 -39t-74 -40.5t-55.5 -61.5t-21.5 -99v-63h-196v74q0 94 38 159.5t91 108.5t108.5 69.5t91.5 43.5q63 29 94 92t31 131q0 55 -23.5 103t-63.5 84t-95.5 56.5 t-116.5 20.5q-72 0 -129 -13.5t-110 -58.5zM178 106q0 53 37 91.5t90 38.5t90 -38t37 -92q0 -53 -37 -89.5t-90 -36.5t-90 36.5t-37 89.5z" />
<glyph unicode="@" horiz-adv-x="1667" d="M68 678q0 154 56 294t165 251q111 113 248.5 172t289.5 59q174 0 319.5 -59.5t248.5 -165.5q92 -104 142 -239.5t50 -295.5v-37q-4 -90 -22.5 -151.5t-44 -103.5t-54 -65.5t-51.5 -35.5q-51 -27 -104 -27q-72 0 -148 48q-29 18 -51 40.5t-39 49.5q-51 -59 -118.5 -91 t-153.5 -32q-80 0 -151.5 30.5t-124 83t-83 123t-30.5 150.5q0 82 30.5 152.5t83 124t124 84t151.5 30.5q72 0 134 -26.5t112 -71.5l49 73l108 -8l-35 -409v-17q0 -59 26 -99t54 -60q35 -20 62 -21q16 0 37 8q37 20 59.5 78.5t26.5 147.5v16q0 4 1 8t1 8q0 168 -53.5 284 t-140.5 187.5t-195.5 103t-219.5 31.5q-123 0 -233.5 -50t-193.5 -135t-131 -197.5t-48 -239.5q0 -125 43 -231.5t120 -186.5t182.5 -129t232.5 -59q14 -2 27.5 -2h25.5q61 0 123.5 12t122.5 39l61 -141q-74 -33 -151.5 -48.5t-155.5 -15.5q-10 0 -22.5 1t-28.5 3h-13 q-160 12 -291.5 73.5t-227 162t-148.5 233.5t-53 289zM565 676q0 -49 18.5 -91t51.5 -74t75 -50.5t91 -18.5q92 0 151.5 65.5t59.5 168.5q0 104 -59.5 170.5t-151.5 66.5q-49 0 -91 -19.5t-75 -51t-51.5 -74.5t-18.5 -92z" />
<glyph unicode="A" d="M23 0l604 1452h235l604 -1452h-231l-191 455h-600l-188 -455h-233zM526 651h437l-218 525z" />
<glyph unicode="B" horiz-adv-x="1228" d="M115 0v1452h567q74 0 139.5 -28.5t114.5 -78t77.5 -116t28.5 -142.5q0 -94 -30.5 -170.5t-100.5 -130.5q117 -43 174.5 -146t57.5 -234q0 -84 -32 -158t-87 -129.5t-130 -87t-159 -31.5h-620zM328 199q14 -2 63 -2h344q43 0 81 18t66.5 50t45 75t16.5 92t-16.5 91t-45 74 t-66.5 50.5t-81 18.5h-407v-467zM328 864q82 -2 151 -2h205q78 0 131 58.5t53 140.5q0 84 -53 141.5t-131 57.5h-356v-396z" />
<glyph unicode="C" horiz-adv-x="1404" d="M84 725q0 154 56.5 289t152.5 236.5t227 160.5t279 59q137 0 259 -54t218 -142l-127 -162q-68 72 -158 118t-192 46q-104 0 -195.5 -44t-159 -120t-107.5 -175t-40 -212t40 -212t107.5 -174t159 -118t195.5 -43q119 0 220 57.5t171 151.5l149 -143q-98 -117 -238 -190.5 t-302 -73.5q-147 0 -278.5 59t-227.5 160.5t-152.5 237.5t-56.5 288z" />
<glyph unicode="D" horiz-adv-x="1388" d="M123 0v1452h516q158 0 278.5 -57.5t201.5 -155.5t123 -231.5t42 -282.5q0 -152 -44 -284t-122 -230t-184.5 -154.5t-228.5 -56.5h-582zM338 199h293q117 0 198.5 43t135 114.5t78 168t24.5 200.5t-24.5 201.5t-77 171t-135 118t-199.5 44.5h-293v-1061z" />
<glyph unicode="E" horiz-adv-x="1124" d="M115 0v1452h886v-192h-673v-396h600v-198h-600v-467h673v-199h-673h-107h-106z" />
<glyph unicode="F" horiz-adv-x="1105" d="M115 0v1452h979v-192h-766v-396h694v-198h-694v-666h-213z" />
<glyph unicode="G" horiz-adv-x="1454" d="M66 725q0 152 56 288t152.5 237.5t227.5 160.5t278 59q135 0 256 -53t217 -139l-127 -162q-68 72 -156.5 116t-189.5 44q-104 0 -195 -44t-159 -120t-106.5 -175t-38.5 -212t38.5 -212t106.5 -174t159 -118t195 -43q96 0 180 38t150 101v261h-184v198h395v-532 q-98 -117 -237.5 -190.5t-303.5 -73.5q-147 0 -278 59t-227.5 160.5t-152.5 236.5t-56 289z" />
<glyph unicode="H" horiz-adv-x="1480" d="M115 0v1452h215v-588h813v588h213v-1452h-213v666h-813v-666h-215z" />
<glyph unicode="I" horiz-adv-x="804" d="M186 0v176h109v1100h-109v176h428v-176h-106v-1100h106v-176h-428z" />
<glyph unicode="J" horiz-adv-x="987" d="M6 348l195 60q6 -45 27.5 -85t52 -71t70.5 -48.5t83 -17.5q49 0 87 19.5t64.5 51.5t43 74t22.5 85q2 10 3 43t1 83v113.5v132.5q0 111 -1 228t-1 215v221h213v-917v-95.5t-6 -91.5t-21.5 -89t-43.5 -85q-66 -92 -159 -143t-204 -51q-80 0 -150.5 29.5t-127 79.5 t-95.5 117.5t-53 141.5z" />
<glyph unicode="K" horiz-adv-x="1433" d="M115 0v1452h213v-780l159 170l605 610h280l-674 -674l699 -780h-289l-551 639l-229 -229v-408h-213z" />
<glyph unicode="L" horiz-adv-x="1050" d="M121 0v1452h215v-1253h672v-199h-887z" />
<glyph unicode="M" horiz-adv-x="1689" d="M123 0v1452h215l508 -698l506 698h215v-1452h-213v1114l-424 -584h-166l-426 584v-1114h-215z" />
<glyph unicode="N" horiz-adv-x="1484" d="M115 0v1452h225l811 -1120v1120h215v-1452h-217l-811 1114v-1114h-223z" />
<glyph unicode="O" horiz-adv-x="1570" d="M70 727q0 152 56 288t154.5 237.5t229.5 161t278 59.5t278.5 -59.5t229 -161t154.5 -237.5t57 -288q0 -154 -57 -289t-155.5 -236.5t-229.5 -160.5t-279 -59q-147 0 -278 59t-228.5 160.5t-153.5 236.5t-56 289zM287 727q0 -113 40 -212t107.5 -173t158.5 -116t195 -42 t195.5 42t159 116t106.5 173t39 212t-39 211t-106.5 172t-158.5 116t-196 42q-104 0 -195 -42t-158.5 -116t-107.5 -172t-40 -211z" />
<glyph unicode="P" horiz-adv-x="1191" d="M111 0v1452h589q86 0 162 -33t132.5 -88t89 -130t32.5 -161t-32.5 -161.5t-89 -131t-132.5 -87t-162 -31.5l-376 -2v-627h-213zM324 827h376q43 0 81 17.5t67 46.5t45 68.5t16 84.5t-16 84t-45 69t-67 47.5t-81 17.5h-376v-435z" />
<glyph unicode="Q" horiz-adv-x="1626" d="M70 727q0 152 57 288t154.5 237.5t228.5 161t278 59.5t278.5 -59.5t230 -161t154.5 -237.5t56 -288q0 -129 -41 -242.5t-110 -205.5l80 -82l168 -47l-50 -168l-233 55l-102 100q-90 -70 -199 -112.5t-232 -42.5q-147 0 -278 59t-228.5 160.5t-154.5 236.5t-57 289z M289 727q0 -113 39 -213t106.5 -175t158.5 -118t195 -43q80 0 153 27.5t134 75.5l-188 188l141 141l178 -182q41 66 62.5 140.5t21.5 158.5q0 113 -40 211t-107.5 172t-158.5 116t-196 42q-104 0 -195 -42t-158.5 -116t-106.5 -172t-39 -211z" />
<glyph unicode="R" horiz-adv-x="1343" d="M119 0v1452h590q86 0 162.5 -33t133 -88t89 -130t32.5 -161q0 -72 -22.5 -135t-62.5 -114.5t-95 -89t-121 -56.5l488 -645h-269l-456 627h-254v-627h-215zM334 825l375 2q43 0 81.5 17.5t66.5 46.5t44.5 68.5t16.5 84.5t-16.5 84t-44.5 69t-66.5 47.5t-81.5 17.5h-375 v-437z" />
<glyph unicode="S" horiz-adv-x="1187" d="M59 240l183 94q41 -74 130 -114t203 -40q297 0 297 228q0 43 -15 73.5t-46 57.5q-74 61 -264 110q-115 29 -195 64t-133 82q-129 104 -129 276q0 86 34 161t95 130q63 55 148.5 83t187.5 28q150 0 275.5 -57.5t191.5 -162.5l-166 -102q-59 72 -137 101.5t-164 29.5 q-61 0 -112.5 -20.5t-86.5 -49.5q-29 -25 -42 -60.5t-13 -76.5q0 -27 8 -54.5t39 -57t90.5 -57t161.5 -54.5q123 -31 207 -66.5t141 -85.5q135 -110 135 -292q0 -92 -36.5 -171t-108.5 -139q-140 -118 -359 -118h-4q-172 0 -311 70.5t-205 189.5z" />
<glyph unicode="T" horiz-adv-x="1069" d="M10 1260v192h1002v-192h-396v-1260h-213v1260h-393z" />
<glyph unicode="U" horiz-adv-x="1298" d="M121 514v938h213v-938q0 -66 24.5 -125t67.5 -105t101.5 -73t123.5 -27q66 0 123 27t100.5 73t68 105.5t24.5 124.5v938h215v-938q0 -111 -42 -208t-114 -170t-168 -114.5t-207 -41.5t-207 41.5t-167.5 114.5t-113.5 170t-42 208z" />
<glyph unicode="V" d="M29 1452h231l490 -1178l489 1178h231l-602 -1452h-237z" />
<glyph unicode="W" horiz-adv-x="1959" d="M25 1452h235l299 -1106l338 1106h162l334 -1096l295 1096h239l-436 -1452h-209l-270 903l-35 164l-37 -172l-268 -895h-211z" />
<glyph unicode="X" horiz-adv-x="1400" d="M51 0l518 780l-446 672h256l319 -479l318 479h256l-447 -672l518 -780h-256l-389 586l-391 -586h-256z" />
<glyph unicode="Y" horiz-adv-x="1284" d="M18 1452h256l363 -545l362 545h258l-512 -772v-680h-215v680z" />
<glyph unicode="Z" horiz-adv-x="1239" d="M70 0v174l764 1086h-697v192h955v-174l-752 -1079h793v-199h-1063z" />
<glyph unicode="[" horiz-adv-x="550" d="M94 -295v1952h422v-135h-287v-1682h287v-135h-422z" />
<glyph unicode="\" horiz-adv-x="1024" d="M12 1442l117 69l883 -1491l-117 -67z" />
<glyph unicode="]" horiz-adv-x="534" d="M20 -160h287v1682h-287v135h422v-1952h-422v135z" />
<glyph unicode="^" horiz-adv-x="856" d="M45 813l307 639h152l307 -639h-149l-234 483l-233 -483h-150z" />
<glyph unicode="_" horiz-adv-x="1212" d="M94 0h1024v-135h-1024v135z" />
<glyph unicode="`" horiz-adv-x="405" d="M59 1452h228l49 -365h-162z" />
<glyph unicode="a" horiz-adv-x="1132" d="M61 489q0 106 39 200.5t105.5 164.5t156 110t191.5 40q82 0 157.5 -32t135.5 -100l31 109h167v-981h-167l-31 113q-51 -68 -131 -103t-162 -35q-102 0 -191.5 40t-156 110t-105.5 164t-39 200zM264 489q0 -70 22.5 -131t61.5 -107t92.5 -72.5t112.5 -26.5t112.5 26.5 t92.5 72.5t61.5 107.5t22.5 130.5q0 70 -22.5 131.5t-61.5 107.5t-92.5 72.5t-112.5 26.5t-112.5 -26.5t-92.5 -72.5t-61.5 -107.5t-22.5 -131.5z" />
<glyph unicode="b" horiz-adv-x="1193" d="M121 0v1495h198v-621q57 61 133 95.5t177 34.5q102 0 189 -40t150.5 -110t99.5 -164t36 -201q0 -106 -36 -200t-99.5 -164t-150.5 -110t-189 -40q-96 0 -173 34t-137 93l-40 -102h-158zM322 489q0 -86 22.5 -149.5t62 -105t93 -62t112.5 -20.5t112.5 26.5t92.5 72.5 t61.5 107.5t22.5 130.5q0 70 -22.5 131.5t-61.5 106.5t-92.5 70.5t-112.5 25.5t-112.5 -17.5t-93 -57t-62 -103t-22.5 -156.5z" />
<glyph unicode="c" horiz-adv-x="1040" d="M74 489q0 106 39 200.5t105.5 164.5t155.5 110t191 40q119 0 219.5 -53.5t167.5 -145.5l-139 -109q-41 59 -103.5 93t-134.5 34q-61 0 -116.5 -25.5t-96 -70.5t-64.5 -106.5t-24 -131.5t24 -131t64.5 -107t96 -72.5t116.5 -26.5q80 0 145.5 43t106.5 114l136 -119 q-66 -98 -170.5 -156.5t-227.5 -58.5q-102 0 -191 40t-155.5 110t-105.5 164t-39 200z" />
<glyph unicode="d" horiz-adv-x="1185" d="M72 489q0 106 35.5 200.5t99 164.5t149.5 110t189 40q102 0 178 -34t131 -96v621h199v-1495h-158l-41 102q-59 -59 -135 -93t-174 -34q-102 0 -188.5 40t-150 110t-99 164t-35.5 200zM272 489q0 -70 22.5 -131t61.5 -107t92.5 -72.5t112.5 -26.5q61 0 113.5 20.5t92.5 62 t62.5 105t22.5 149.5q0 92 -22.5 156t-62.5 103.5t-92 57t-114 17.5q-59 0 -112.5 -25.5t-92.5 -70.5t-61.5 -106.5t-22.5 -131.5z" />
<glyph unicode="e" horiz-adv-x="1085" d="M68 489q0 106 37.5 200.5t102 164.5t150.5 110t185 40q100 0 185 -35t147.5 -109t97.5 -187.5t35 -271.5h-729q14 -53 44.5 -99t72.5 -80t94.5 -52t109.5 -18q78 0 144.5 28.5t113.5 75.5l123 -123q-72 -72 -175 -115t-226 -43q-106 0 -199.5 40t-163.5 110t-109.5 164 t-39.5 200zM276 578h519q-4 49 -22.5 94t-51.5 78.5t-77 53t-101 19.5q-47 0 -89 -18.5t-78 -51t-61.5 -77.5t-38.5 -98z" />
<glyph unicode="f" horiz-adv-x="778" d="M88 803v137l168 41v119q0 104 26.5 181t72.5 126t105.5 72.5t127.5 23.5q84 0 170 -35v-145q-74 23 -127 23q-84 0 -130 -51.5t-46 -164.5v-149h303v-178h-303v-803h-199v803h-168z" />
<glyph unicode="g" horiz-adv-x="1210" d="M88 530q0 98 36 184.5t99.5 151t149.5 101.5t188 37t178 -31t133 -88l41 96h156v-15.5v-36v-75.5v-135t1 -215t1 -314q0 -61 -4 -119.5t-17.5 -112.5t-39 -104.5t-68.5 -97.5q-82 -86 -185.5 -115.5t-217.5 -29.5q-98 0 -185.5 24.5t-156.5 65.5v221q41 -59 128 -96 t197 -37q74 0 137.5 19.5t110.5 59.5t74.5 103.5t27.5 151.5v39q-25 -23 -60.5 -43.5t-77.5 -35.5t-87 -24.5t-86 -9.5q-102 0 -188 38t-149.5 104.5t-99.5 153.5t-36 185zM289 530q0 -61 22.5 -115.5t62.5 -94t93 -63.5t113 -24q59 0 112 18.5t92 55.5t61.5 92.5 t22.5 130.5q0 80 -22.5 136.5t-61.5 91.5t-92 50t-112 15t-112.5 -22.5t-93.5 -62.5t-62.5 -93t-22.5 -115z" />
<glyph unicode="h" horiz-adv-x="1110" d="M115 0v1495h198v-604q55 61 115.5 87t140.5 26q102 0 183.5 -40t138.5 -110t87 -164t30 -201v-489h-201v489q0 70 -19.5 131.5t-53.5 106.5t-78 70.5t-95 25.5q-43 0 -86 -17.5t-79 -56t-59.5 -102t-23.5 -153.5v-494h-198z" />
<glyph unicode="i" horiz-adv-x="430" d="M94 1323q0 53 37 90t90 37t90 -37t37 -90t-37 -91t-90 -38t-90 38t-37 91zM123 0v981h196l3 -981h-199z" />
<glyph unicode="j" horiz-adv-x="487" d="M-98 -373l37 148q63 -8 105 -8t68.5 14t38 43t11.5 78v1079h198v-1049q0 -135 -39.5 -209.5t-104.5 -105.5q-55 -26 -120 -26q-14 0 -28 1q-82 7 -166 35zM131 1323q0 53 37 90t90 37t91 -37t38 -90t-38 -91t-91 -38t-90 38t-37 91z" />
<glyph unicode="k" horiz-adv-x="1024" d="M125 0v1495h199v-917l385 403h245l-376 -395l405 -586h-225l-309 451l-125 -132v-319h-199z" />
<glyph unicode="l" horiz-adv-x="434" d="M125 0v1495h199v-1495h-199z" />
<glyph unicode="m" horiz-adv-x="1511" d="M115 0v981h157l41 -84q37 43 88.5 75t124.5 32q29 0 65 -7.5t73.5 -25t72.5 -47t60 -76.5q35 63 105.5 109.5t150.5 46.5q53 0 112.5 -16.5t110.5 -61.5t84 -125t33 -207v-594h-187v596q0 127 -52 177t-138 50q-66 0 -115 -55t-49 -174v-594h-186v596q0 127 -52.5 177 t-138.5 50q-61 0 -107 -47t-55 -147v-629h-198z" />
<glyph unicode="n" horiz-adv-x="1093" d="M111 0v981h157l41 -86q49 47 119 78t152 31q53 0 120.5 -16.5t126 -61.5t98.5 -125t40 -207v-594h-189v596q0 63 -19.5 107.5t-51 71t-71.5 37.5t-83 11q-33 0 -75 -12t-79 -40t-62.5 -70t-25.5 -103v-598h-198z" />
<glyph unicode="o" horiz-adv-x="1081" d="M53 489q0 106 39 200.5t105.5 164.5t155.5 110t192 40q100 0 190 -40t156.5 -110t105.5 -164t39 -201q0 -106 -39 -200t-105.5 -164t-156.5 -110t-190 -40q-102 0 -191.5 40t-156 110t-105.5 164t-39 200zM254 489q0 -70 22.5 -131t62.5 -107t93 -72.5t113 -26.5 q59 0 112.5 26.5t92 72.5t61.5 107.5t23 130.5q0 70 -23 131.5t-61.5 106.5t-92 71.5t-112.5 26.5t-112.5 -26.5t-93.5 -71.5t-62.5 -106.5t-22.5 -131.5z" />
<glyph unicode="p" horiz-adv-x="1155" d="M115 -406v1387h157l41 -102q59 59 136 92t174 33q102 0 189 -40t150.5 -110t99.5 -164t36 -201q0 -106 -36 -200t-99.5 -164t-150.5 -110t-189 -40q-100 0 -176 34t-134 97v-512h-198zM315 489q0 -92 22.5 -156.5t62.5 -104.5t93.5 -58t112.5 -18t112.5 26.5t92.5 72.5 t61.5 107.5t22.5 130.5q0 70 -22.5 131.5t-61.5 106.5t-92.5 70.5t-112.5 25.5t-112.5 -19.5t-93.5 -61.5t-62.5 -104.5t-22.5 -148.5z" />
<glyph unicode="q" horiz-adv-x="1163" d="M63 489q0 106 36 200.5t99.5 164.5t149.5 110t189 40q98 0 173.5 -33t135.5 -92l41 102h157v-1387h-198v512q-55 -63 -131 -97t-178 -34t-188.5 40t-150 110t-99.5 164t-36 200zM264 489q0 -70 22.5 -131t62.5 -107t92.5 -72.5t113.5 -26.5q59 0 112.5 18t92.5 58 t61.5 104.5t22.5 156.5q0 86 -22.5 148.5t-61.5 104.5t-92.5 61.5t-112.5 19.5q-61 0 -113.5 -25.5t-92.5 -70.5t-62.5 -106.5t-22.5 -131.5z" />
<glyph unicode="r" horiz-adv-x="774" d="M135 0v981h158l41 -109q41 59 107.5 95.5t166.5 36.5q66 0 150 -19l-51 -186q-14 6 -29 12q-12 4 -28.5 8t-35.5 4q-59 0 -110 -19.5t-88 -52t-58.5 -76.5t-21.5 -93l-2 -582h-199z" />
<glyph unicode="s" horiz-adv-x="880" d="M66 207l167 76q33 -72 84.5 -97.5t116.5 -25.5q82 0 137 45q18 16 32.5 36.5t14.5 47.5q0 33 -23.5 55.5t-57 37.5t-70.5 23.5t-61 14.5q-68 16 -127.5 39.5t-103.5 57.5t-69.5 80t-25.5 110q0 59 28.5 111t76.5 92t112.5 63.5t136.5 23.5q63 0 120.5 -18t104 -50t78 -77 t41.5 -100l-178 -43q-12 49 -53 81.5t-113 32.5q-25 0 -51.5 -7t-49 -21.5t-37.5 -35t-15 -46.5q0 -29 17 -49.5t42 -34t53.5 -21.5t52.5 -14q109 -27 180.5 -57.5t114.5 -67.5t60.5 -81t17.5 -99q0 -66 -29.5 -123t-82 -99t-125 -66t-156.5 -24q-127 0 -226.5 62.5 t-133.5 167.5z" />
<glyph unicode="t" horiz-adv-x="700" d="M43 803v137l143 41v262h199v-262h266v-178h-266v-529q0 -49 11.5 -77.5t38 -43t69.5 -14.5t104 8l39 -145q-84 -29 -166 -35q-14 -1 -27 -1q-66 0 -120 24q-66 30 -107 105t-41 210v498h-143z" />
<glyph unicode="u" horiz-adv-x="1095" d="M121 385v596h188v-596q0 -63 19.5 -107.5t51.5 -71t73 -38.5t84 -12q33 0 74.5 12t78.5 40t62.5 71t25.5 104v598h199v-981h-158l-41 88q-51 -47 -119.5 -77.5t-152.5 -30.5q-53 0 -121 15t-126 60t-98 124t-40 206z" />
<glyph unicode="v" horiz-adv-x="1130" d="M25 981h215l323 -780l324 780h215l-408 -981h-264z" />
<glyph unicode="w" horiz-adv-x="1589" d="M29 981h211l229 -741l242 741h176l241 -735l228 735h211l-330 -981h-217l-205 600l-16 94l-17 -94l-202 -600h-222z" />
<glyph unicode="x" horiz-adv-x="1060" d="M39 0l375 508l-348 473h241l228 -307l225 307h241l-346 -473l373 -508h-242l-251 344l-254 -344h-242z" />
<glyph unicode="y" horiz-adv-x="1095" d="M20 981h222l303 -637l297 637h219l-633 -1372h-219l227 502z" />
<glyph unicode="z" horiz-adv-x="923" d="M43 0v141l535 662h-492v178h766v-150l-530 -655h538v-176h-817z" />
<glyph unicode="{" horiz-adv-x="632" d="M8 625v135q102 6 160.5 33.5t88.5 59.5t37 59.5t7 31.5v451q0 55 21.5 104t57.5 85t85 57.5t104 21.5v-119q-70 0 -101.5 -47t-31.5 -102v-375q0 -47 -3 -93t-25 -89q-29 -55 -77 -94t-106 -56q12 0 28.5 -11t27.5 -15q12 -8 24 -15.5t23 -17.5q37 -35 63 -80 q27 -45 36 -92t9 -99v-399q0 -55 29 -102t104 -47v-119q-55 0 -104 21.5t-85 57t-57.5 85t-21.5 104.5v438q0 10 -8 45t-38 73t-88 70.5t-159 39.5z" />
<glyph unicode="|" horiz-adv-x="319" d="M94 -309v1937h135v-1937h-135z" />
<glyph unicode="}" horiz-adv-x="630" d="M61 -190q70 0 102 47t32 102v377q0 47 3 92t25 88q12 23 32.5 48.5t45.5 48t52.5 38t52.5 15.5q-10 0 -29 11t-27 15q-12 8 -24.5 16.5t-22.5 18.5q-41 37 -63 80q-29 47 -38 100.5t-9 108.5q0 47 1 95t1 95v189q0 55 -29 102t-105 47v119q55 0 104.5 -21.5t85.5 -57.5 t57.5 -85t21.5 -104v-439q0 -10 8 -43.5t36.5 -72.5t87 -71t161.5 -38v-137q-102 -4 -162 -31.5t-88.5 -60.5t-35.5 -60.5t-7 -31.5v-451q0 -55 -21.5 -104.5t-57.5 -85t-85 -57t-105 -21.5v119z" />
<glyph unicode="~" horiz-adv-x="1181" d="M63 551q2 2 24 33.5t64 66.5t104 64.5t148 29.5q92 0 151.5 -31.5t104.5 -64.5l9 -6q31 -23 57 -36t61 -13q45 0 90.5 17.5t81 38t58.5 38.5l24 19l43 -39q10 -10 24.5 -23.5t12.5 -15.5q-10 -10 -40.5 -39t-74.5 -57.5t-100.5 -51t-118.5 -22.5q-72 0 -118.5 26.5 t-87.5 55.5q-39 29 -78 49t-99 20q-66 0 -127 -33.5t-96 -93.5z" />
<glyph unicode="&#xa1;" horiz-adv-x="575" d="M160 877q0 53 37 90t90 37t91 -37t38 -90t-38 -91t-91 -38t-90 37.5t-37 91.5zM172 -469l25 1116h180l26 -1116h-231z" />
<glyph unicode="&#xa2;" horiz-adv-x="925" d="M43 651q0 100 37 191q18 47 44 85t56 72q33 33 70 59.5t78 45.5q49 23 100 31v202h152v-200q76 -12 141 -45q98 -53 160 -140l-133 -104q-41 57 -99 92q-31 16 -69 27v-631q23 4 42 13.5t37 19.5q63 45 103 110l129 -112q-63 -94 -162 -150q-68 -39 -149 -51v-154h-152 v156q-51 8 -100 31q-84 37 -148 104q-66 72 -100 156q-37 92 -37 192zM233 651q0 -63 23 -125q23 -59 61 -102q40 -45 93 -70q6 -4 18 -8v610q-12 -4 -18 -8q-49 -23 -93 -69q-39 -43 -61 -103q-23 -61 -23 -125z" />
<glyph unicode="&#xa3;" horiz-adv-x="1097" d="M41 565v189h147q2 35 3.5 71.5t2.5 70.5t2 60.5t1 42.5q0 141 43 230.5t105.5 138.5t131 67.5t119.5 18.5q104 0 179 -41t125 -99.5t78 -123t38 -113.5l-187 -35q-2 8 -12 44t-36.5 76t-70.5 72t-114 32q-41 0 -79 -15.5t-67.5 -48.5t-48 -83t-18.5 -120q0 -33 -3 -103.5 t-7 -141.5h399v-189h-412l-8 -151l-6 -107q-2 -33 -2 -64.5t-2 -52.5h360q37 0 78 13.5t77 31t64.5 36t45.5 30.5l116 -147q-4 -2 -37.5 -27t-87 -52.5t-120 -51t-136.5 -23.5h-565l6 98q0 4 1 8.5t1 12.5t1 17t1 20l11 127l20 282h-137z" />
<glyph unicode="&#xa5;" horiz-adv-x="1304" d="M33 1452h256l362 -545l363 545h258l-451 -680h271v-94h-332v-174h332v-92h-332v-412h-215v412h-326v92h326v174h-326v94h264z" />
<glyph unicode="&#xa7;" horiz-adv-x="1062" d="M63 -184l166 86q37 -66 120 -103t188 -37q272 0 272 209q0 74 -57 119q-63 53 -242 103q-104 27 -178 58.5t-121 72.5q-121 98 -121 256q0 78 32 145.5t89 118.5q20 18 49 37q-14 8 -26.5 17t-22.5 20q-121 96 -121 253q0 78 32 146.5t89 118.5q57 53 135 77.5t170 24.5 q137 0 253 -52t175 -149l-151 -94q-53 66 -126 93.5t-151 27.5q-55 0 -102 -18.5t-78 -45.5q-27 -23 -39 -56.5t-12 -69.5q0 -25 8 -50.5t35.5 -51t82 -52.5t146.5 -51q113 -29 190.5 -60.5t131.5 -77.5q123 -102 122 -268q0 -174 -133 -282l-22 -19l33 -24 q122 -103 122 -267q0 -174 -133 -284q-127 -109 -331 -109q-158 0 -286 64.5t-188 173.5zM285 580q0 -23 8 -48.5t35.5 -52t82 -52.5t146.5 -50l64 -17q188 31 188 203q0 41 -14 68.5t-43 50.5q-57 47 -179 84q-14 2 -28.5 3t-28.5 1q-55 0 -102 -17.5t-78 -45.5 q-27 -23 -39 -57t-12 -70z" />
<glyph unicode="&#xa8;" horiz-adv-x="894" d="M84 1649q0 53 37 90t90 37t90 -37t37 -90t-37 -91t-90 -38t-90 37.5t-37 91.5zM557 1649q0 53 37 90t90 37t90 -37t37 -90t-37 -91t-90 -38t-90 37.5t-37 91.5z" />
<glyph unicode="&#xa9;" horiz-adv-x="1673" d="M143 692q0 143 54.5 270.5t148.5 221.5t221.5 148t270.5 54t269 -54t220 -148t148.5 -221t54.5 -271q0 -143 -54.5 -269t-148.5 -220t-220 -148.5t-269 -54.5t-270.5 54.5t-221.5 148.5t-148.5 220t-54.5 269zM264 692q0 -119 45 -222t123 -181t182.5 -123t223.5 -45 t222 45t181 123t123 181t45 222t-45 223.5t-123 182.5t-181.5 123t-221.5 45q-119 0 -223.5 -45t-182.5 -123t-123 -182.5t-45 -223.5zM467 692q0 84 31 158t86 129q55 59 123 88q68 33 153 33q72 0 139 -29q68 -31 121 -78l-71 -88q-33 37 -84 64q-49 25 -105 24 q-57 0 -106 -24q-47 -20 -88 -64q-35 -41 -60 -96q-20 -53 -20 -117q0 -63 20 -117q27 -55 60 -94q41 -43 88 -63q49 -25 106 -25q60 0 119 33q29 16 52.5 35.5t39.5 46.5l84 -78q-29 -31 -60.5 -57.5t-70.5 -46.5q-78 -41 -164 -41q-78 0 -153 32q-70 33 -123 91 q-57 57 -86 129q-31 74 -31 155z" />
<glyph unicode="&#xab;" horiz-adv-x="942" d="M33 524v183l465 448v-223l-330 -318l330 -292v-226zM483 520v187l391 354v-223l-249 -224l258 -208v-230z" />
<glyph unicode="&#xac;" horiz-adv-x="1054" d="M12 713v135h949v-539h-136v404h-813z" />
<glyph unicode="&#xad;" horiz-adv-x="788" d="M94 535v135h602v-135h-602z" />
<glyph unicode="&#xae;" horiz-adv-x="1671" d="M143 692q0 143 54.5 270.5t148.5 221.5t220.5 148t269.5 54t269 -54t220 -148t148.5 -221t54.5 -271q0 -143 -54.5 -269t-148.5 -220t-220 -148.5t-269 -54.5t-269.5 54.5t-220.5 148.5t-148.5 220t-54.5 269zM262 692q0 -119 45 -222t123 -181t182.5 -123t223.5 -45 t222 45t181 123t123 181t45 222t-45 223.5t-123 182.5t-181.5 123t-221.5 45q-119 0 -223.5 -45t-182.5 -123t-123 -182.5t-45 -223.5zM586 297v793h321q47 0 88 -19q43 -18 74 -49t49 -70q8 -23 13.5 -44t5.5 -44q0 -43 -15 -73q-4 -16 -13 -33t-19 -31q-23 -29 -54 -47 q-29 -20 -63 -33l235 -313l-118 -37l-248 342h-140v-342h-116zM702 748h205q20 0 45 10q20 8 37 24q6 10 12.5 18.5t10.5 18.5q10 25 10 47q0 25 -10 45q-4 10 -10.5 20.5t-12.5 18.5q-12 12 -37 27q-10 4 -21 6t-24 2h-205v-237z" />
<glyph unicode="&#xb0;" horiz-adv-x="753" d="M66 1040q0 63 24.5 121t66.5 100t98 66.5t122 24.5q63 0 120.5 -24.5t99.5 -66.5t66.5 -99.5t24.5 -121.5q0 -66 -24.5 -122t-66.5 -99t-99.5 -67.5t-120.5 -24.5q-66 0 -122 24.5t-98 67.5t-66.5 99.5t-24.5 121.5zM201 1040q0 -74 51 -126t125 -52t126 52.5t52 125.5 q0 37 -14.5 69t-38 55.5t-56 38t-69.5 14.5t-69 -14.5t-56.5 -38t-37.5 -55.5t-13 -69z" />
<glyph unicode="&#xb1;" horiz-adv-x="1046" d="M29 0v135h989v-135h-989zM29 575v136h420v346h159v-346h410v-136h-410v-346h-159v346h-420z" />
<glyph unicode="&#xb4;" horiz-adv-x="401" d="M84 1087l49 365h227l-114 -365h-162z" />
<glyph unicode="&#xb6;" horiz-adv-x="1202" d="M45 1057q0 82 30.5 153.5t85 125t126 85t153.5 31.5h701v-152h-183v-1617h-151v1617h-215v-1617h-152v979q-82 0 -153.5 30.5t-126 84.5t-85 126t-30.5 154z" />
<glyph unicode="&#xb7;" horiz-adv-x="380" d="M68 614l49 365h227l-115 -365h-161z" />
<glyph unicode="&#xb8;" horiz-adv-x="653" d="M104 -123l179 256h100l-147 -229q96 18 143 -19t47 -98q0 -78 -57.5 -113.5t-135.5 -35.5q-23 0 -51 2t-49 6q4 16 8 34.5t9 34.5q10 -2 22 -3t29 -1q43 0 74.5 15.5t31.5 50.5q0 29 -19.5 45t-54.5 16q-37 0 -69 -18z" />
<glyph unicode="&#xbb;" horiz-adv-x="944" d="M61 176v230l258 208l-249 224v223l391 -354v-187zM446 96v226l330 292l-330 318v223l465 -448v-183z" />
<glyph unicode="&#xbf;" horiz-adv-x="948" d="M88 -27q0 231 231 371q37 23 77 39t74 41t55.5 61.5t21.5 98.5v63h196v-74q0 -96 -37.5 -160.5t-91 -107.5t-108.5 -69.5t-92 -42.5q-63 -29 -94 -92.5t-31 -131.5q0 -55 23.5 -103t63.5 -84t95.5 -56.5t116.5 -20.5q72 0 129 13.5t110 58.5l31 -191q-121 -74 -270 -73 q-104 0 -195.5 36.5t-159 99t-106.5 146.5t-39 178zM514 877q0 53 37 90t90 37t90 -37t37 -90t-37 -91t-90 -38t-90 37.5t-37 91.5z" />
<glyph unicode="&#xc0;" d="M23 0l604 1452h235l604 -1452h-231l-191 455h-600l-188 -455h-233zM526 651h437l-218 525zM548 1913h228l49 -365h-162z" />
<glyph unicode="&#xc1;" d="M23 0l604 1452h235l604 -1452h-231l-191 455h-600l-188 -455h-233zM526 651h437l-218 525zM672 1548l49 365h227l-114 -365h-162z" />
<glyph unicode="&#xc2;" d="M23 0l604 1452h235l604 -1452h-231l-191 455h-600l-188 -455h-233zM410 1548l237 256h187l247 -256h-206l-134 181l-122 -181h-209zM526 651h437l-218 525z" />
<glyph unicode="&#xc3;" d="M23 0l604 1452h235l604 -1452h-231l-191 455h-600l-188 -455h-233zM337 1635q25 51 76 104t139 70q10 2 19.5 3t19.5 1q53 0 95.5 -20.5t76.5 -43.5l7 -4l12 -8l6 -4q25 -16 46.5 -26.5t43.5 -10.5q13 0 19 2q41 6 78.5 37t64.5 62q20 -20 41.5 -41t38.5 -43 q-14 -23 -35 -48.5t-47.5 -49t-57 -40t-65.5 -22.5q-10 -2 -17.5 -3t-15.5 -1q-45 0 -83 20.5t-72 46.5q-29 20 -59 34.5t-66 14.5q-20 0 -31 -2q-41 -6 -74 -31.5t-55 -66.5zM526 651h437l-218 525z" />
<glyph unicode="&#xc4;" d="M23 0l604 1452h235l604 -1452h-231l-191 455h-600l-188 -455h-233zM385 1680q0 53 37 90t90 37t90 -37t37 -90t-37 -91t-90 -38t-90 37.5t-37 91.5zM526 651h437l-218 525zM858 1680q0 53 37 90t90 37t90 -37t37 -90t-37 -91t-90 -38t-90 37.5t-37 91.5z" />
<glyph unicode="&#xc5;" d="M23 0l573 1380q-33 29 -51.5 72t-18.5 90q0 45 17.5 85t46 69.5t68.5 47t87 17.5q45 0 85 -17.5t70 -47t47.5 -69.5t17.5 -85q0 -49 -19.5 -91t-54.5 -73l575 -1378h-231l-191 455h-600l-188 -455h-233zM526 651h437l-218 525zM655 1542q0 -37 25.5 -63.5t64.5 -26.5 t64 26.5t25 63.5q0 39 -25 63.5t-64 24.5t-64.5 -24.5t-25.5 -63.5z" />
<glyph unicode="&#xc6;" horiz-adv-x="1843" d="M0 0l608 1452h1112v-192h-673v-396h600v-198h-600v-467h673v-199h-886v455h-412l-189 -455h-233zM504 651h330v609h-78z" />
<glyph unicode="&#xc7;" horiz-adv-x="1357" d="M37 725q0 154 56.5 289t152.5 236.5t227 160.5t279 59q137 0 259 -54t218 -142l-127 -162q-68 72 -158 118t-192 46q-104 0 -195.5 -44t-159 -120t-107.5 -175t-40 -212t40 -212t107.5 -174t158.5 -118t196 -43q119 0 220 57.5t171 151.5l149 -143q-94 -111 -224 -182.5 t-282 -79.5l-49 -78q96 18 143.5 -19t47.5 -98q0 -78 -57.5 -113.5t-135.5 -35.5q-23 0 -51.5 2t-48.5 6q4 16 8 34.5t8 34.5q10 -2 22.5 -3t28.5 -1q43 0 75 15.5t32 50.5q0 29 -19.5 45t-54.5 16q-37 0 -69 -18l-60 57l74 107q-135 14 -253 77.5t-205 164t-136 228.5 t-49 271z" />
<glyph unicode="&#xc8;" horiz-adv-x="1124" d="M115 0v1452h886v-192h-673v-396h600v-198h-600v-467h673v-199h-673h-107h-106zM424 1913h228l49 -365h-162z" />
<glyph unicode="&#xc9;" horiz-adv-x="1124" d="M115 0v1452h886v-192h-673v-396h600v-198h-600v-467h673v-199h-673h-107h-106zM424 1548l49 365h227l-114 -365h-162z" />
<glyph unicode="&#xca;" horiz-adv-x="1124" d="M115 0v1452h886v-192h-673v-396h600v-198h-600v-467h673v-199h-673h-107h-106zM226 1548l237 256h187l247 -256h-206l-134 181l-122 -181h-209z" />
<glyph unicode="&#xcb;" horiz-adv-x="1124" d="M115 0v1452h886v-192h-673v-396h600v-198h-600v-467h673v-199h-673h-107h-106zM199 1678q0 53 37 90t90 37t90 -37t37 -90t-37 -91t-90 -38t-90 37.5t-37 91.5zM672 1678q0 53 37 90t90 37t90 -37t37 -90t-37 -91t-90 -38t-90 37.5t-37 91.5z" />
<glyph unicode="&#xcc;" horiz-adv-x="804" d="M186 0v176h109v1100h-109v176h428v-176h-106v-1100h106v-176h-428zM204 1913h228l49 -365h-162z" />
<glyph unicode="&#xcd;" horiz-adv-x="804" d="M186 0v176h109v1100h-109v176h428v-176h-106v-1100h106v-176h-428zM336 1548l49 365h227l-114 -365h-162z" />
<glyph unicode="&#xce;" horiz-adv-x="804" d="M66 1548l237 256h187l247 -256h-206l-134 181l-122 -181h-209zM186 0v176h109v1100h-109v176h428v-176h-106v-1100h106v-176h-428z" />
<glyph unicode="&#xcf;" horiz-adv-x="804" d="M45 1678q0 53 37 90t90 37t90 -37t37 -90t-37 -91t-90 -38t-90 37.5t-37 91.5zM186 0v176h109v1100h-109v176h428v-176h-106v-1100h106v-176h-428zM518 1678q0 53 37 90t90 37t90 -37t37 -90t-37 -91t-90 -38t-90 37.5t-37 91.5z" />
<glyph unicode="&#xd1;" horiz-adv-x="1484" d="M115 0v1452h225l811 -1120v1120h215v-1452h-217l-811 1114v-1114h-223zM350 1635q25 51 76 104t139 70q10 2 19.5 3t19.5 1q53 0 95.5 -20.5t76.5 -43.5l7 -4l12 -8l6 -4q25 -16 46.5 -26.5t43.5 -10.5q13 0 19 2q41 6 78.5 37t64.5 62q20 -20 41.5 -41t38.5 -43 q-14 -23 -35 -48.5t-47.5 -49t-57 -40t-65.5 -22.5q-10 -2 -17.5 -3t-15.5 -1q-45 0 -83 20.5t-72 46.5q-29 20 -59 34.5t-66 14.5q-20 0 -31 -2q-41 -6 -74 -31.5t-55 -66.5z" />
<glyph unicode="&#xd2;" horiz-adv-x="1570" d="M70 727q0 152 56 288t154.5 237.5t229.5 161t278 59.5t278.5 -59.5t229 -161t154.5 -237.5t57 -288q0 -154 -57 -289t-155.5 -236.5t-229.5 -160.5t-279 -59q-147 0 -278 59t-228.5 160.5t-153.5 236.5t-56 289zM287 727q0 -113 40 -212t107.5 -173t158.5 -116t195 -42 t195.5 42t159 116t106.5 173t39 212t-39 211t-106.5 172t-158.5 116t-196 42q-104 0 -195 -42t-158.5 -116t-107.5 -172t-40 -211zM647 1913h228l49 -365h-162z" />
<glyph unicode="&#xd3;" horiz-adv-x="1570" d="M70 727q0 152 56 288t154.5 237.5t229.5 161t278 59.5t278.5 -59.5t229 -161t154.5 -237.5t57 -288q0 -154 -57 -289t-155.5 -236.5t-229.5 -160.5t-279 -59q-147 0 -278 59t-228.5 160.5t-153.5 236.5t-56 289zM287 727q0 -113 40 -212t107.5 -173t158.5 -116t195 -42 t195.5 42t159 116t106.5 173t39 212t-39 211t-106.5 172t-158.5 116t-196 42q-104 0 -195 -42t-158.5 -116t-107.5 -172t-40 -211zM647 1548l49 365h227l-114 -365h-162z" />
<glyph unicode="&#xd4;" horiz-adv-x="1570" d="M70 727q0 152 56 288t154.5 237.5t229.5 161t278 59.5t278.5 -59.5t229 -161t154.5 -237.5t57 -288q0 -154 -57 -289t-155.5 -236.5t-229.5 -160.5t-279 -59q-147 0 -278 59t-228.5 160.5t-153.5 236.5t-56 289zM287 727q0 -113 40 -212t107.5 -173t158.5 -116t195 -42 t195.5 42t159 116t106.5 173t39 212t-39 211t-106.5 172t-158.5 116t-196 42q-104 0 -195 -42t-158.5 -116t-107.5 -172t-40 -211zM449 1548l237 256h187l247 -256h-206l-134 181l-122 -181h-209z" />
<glyph unicode="&#xd5;" horiz-adv-x="1570" d="M70 727q0 152 56 288t154.5 237.5t229.5 161t278 59.5t278.5 -59.5t229 -161t154.5 -237.5t57 -288q0 -154 -57 -289t-155.5 -236.5t-229.5 -160.5t-279 -59q-147 0 -278 59t-228.5 160.5t-153.5 236.5t-56 289zM287 727q0 -113 40 -212t107.5 -173t158.5 -116t195 -42 t195.5 42t159 116t106.5 173t39 212t-39 211t-106.5 172t-158.5 116t-196 42q-104 0 -195 -42t-158.5 -116t-107.5 -172t-40 -211zM372 1635q25 51 76 104t139 70q10 2 19.5 3t19.5 1q53 0 95.5 -20.5t76.5 -43.5l7 -4l12 -8l6 -4q25 -16 46.5 -26.5t43.5 -10.5q13 0 19 2 q41 6 78.5 37t64.5 62q20 -20 41.5 -41t38.5 -43q-14 -23 -35 -48.5t-47.5 -49t-57 -40t-65.5 -22.5q-10 -2 -17.5 -3t-15.5 -1q-45 0 -83 20.5t-72 46.5q-29 20 -59 34.5t-66 14.5q-20 0 -31 -2q-41 -6 -74 -31.5t-55 -66.5z" />
<glyph unicode="&#xd6;" horiz-adv-x="1570" d="M66 727q0 152 56 288t154.5 237.5t229.5 161t278 59.5t278.5 -59.5t229 -161t154.5 -237.5t57 -288q0 -154 -57 -289t-155.5 -236.5t-229.5 -160.5t-279 -59q-147 0 -278 59t-228.5 160.5t-153.5 236.5t-56 289zM283 727q0 -113 40 -212t107.5 -173t158.5 -116t195 -42 t195.5 42t159 116t106.5 173t39 212t-39 211t-106.5 172t-158.5 116t-196 42q-104 0 -195 -42t-158.5 -116t-107.5 -172t-40 -211zM422 1678q0 53 37 90t90 37t90 -37t37 -90t-37 -91t-90 -38t-90 37.5t-37 91.5zM895 1678q0 53 37 90t90 37t90 -37t37 -90t-37 -91t-90 -38 t-90 37.5t-37 91.5z" />
<glyph unicode="&#xd8;" horiz-adv-x="1556" d="M59 727q0 152 56.5 288t155 237.5t229.5 161t278 59.5q84 0 163 -20.5t151 -55.5l65 110l117 -69l-68 -115q133 -104 212 -260t79 -336q0 -154 -57.5 -289t-155.5 -236.5t-229 -160.5t-279 -59q-86 0 -167 20.5t-152 56.5l-66 -110l-117 69l68 117q-129 104 -206 258 t-77 334zM276 727q0 -125 47.5 -231.5t127.5 -180.5l534 904q-47 23 -99 36t-108 13q-104 0 -195 -42t-159 -116t-108 -172t-40 -211zM561 236q102 -52 217 -52q104 0 195.5 42t159 116t106.5 173t39 212q0 125 -48 232.5t-132 181.5z" />
<glyph unicode="&#xd9;" horiz-adv-x="1298" d="M121 514v938h213v-938q0 -66 24.5 -125t67.5 -105t101.5 -73t123.5 -27q66 0 123 27t100.5 73t68 105.5t24.5 124.5v938h215v-938q0 -111 -42 -208t-114 -170t-168 -114.5t-207 -41.5t-207 41.5t-167.5 114.5t-113.5 170t-42 208zM510 1913h228l49 -365h-162z" />
<glyph unicode="&#xda;" horiz-adv-x="1298" d="M121 514v938h213v-938q0 -66 24.5 -125t67.5 -105t101.5 -73t123.5 -27q66 0 123 27t100.5 73t68 105.5t24.5 124.5v938h215v-938q0 -111 -42 -208t-114 -170t-168 -114.5t-207 -41.5t-207 41.5t-167.5 114.5t-113.5 170t-42 208zM510 1548l49 365h227l-114 -365h-162z " />
<glyph unicode="&#xdb;" horiz-adv-x="1298" d="M119 514v938h213v-938q0 -66 24.5 -125t67.5 -105t101.5 -73t123.5 -27q66 0 123 27t100.5 73t68 105.5t24.5 124.5v938h215v-938q0 -111 -42 -208t-114 -170t-168 -114.5t-207 -41.5t-207 41.5t-167.5 114.5t-113.5 170t-42 208zM314 1548l237 256h187l247 -256h-206 l-134 181l-122 -181h-209z" />
<glyph unicode="&#xdc;" horiz-adv-x="1306" d="M123 514v938h213v-938q0 -66 24.5 -125t67.5 -105t101.5 -73t123.5 -27q66 0 123 27t100.5 73t68 105.5t24.5 124.5v938h215v-938q0 -111 -42 -208t-114 -170t-168 -114.5t-207 -41.5t-207 41.5t-167.5 114.5t-113.5 170t-42 208zM291 1678q0 53 37 90t90 37t90 -37 t37 -90t-37 -91t-90 -38t-90 37.5t-37 91.5zM764 1678q0 53 37 90t90 37t90 -37t37 -90t-37 -91t-90 -38t-90 37.5t-37 91.5z" />
<glyph unicode="&#xdf;" horiz-adv-x="1079" d="M100 -293v1401q0 74 29 140.5t78 115.5t114.5 77.5t141.5 28.5h49q74 0 140.5 -28.5t115.5 -77.5t77.5 -115.5t28.5 -140.5q0 -86 -18 -138t-39.5 -85t-39 -52.5t-17.5 -35.5t33.5 -36t73.5 -58.5t74 -106.5t34 -182q0 -84 -33 -163t-88 -139.5t-130 -96t-159 -35.5h-139 v196h139q43 0 78 23.5t59.5 60.5t38 84t13.5 96t-11.5 92t-39 75t-73.5 50.5t-114 18.5v198q76 0 118 61.5t42 145.5q0 82 -44 140.5t-132 58.5q-76 0 -129.5 -58.5t-53.5 -140.5v-75.5t-1 -164t-1 -221v-247.5v-666h-215z" />
<glyph unicode="&#xe0;" horiz-adv-x="1132" d="M61 489q0 106 39 200.5t105.5 164.5t156 110t191.5 40q82 0 157.5 -32t135.5 -100l31 109h167v-981h-167l-31 113q-51 -68 -131 -103t-162 -35q-102 0 -191.5 40t-156 110t-105.5 164t-39 200zM264 489q0 -70 22.5 -131t61.5 -107t92.5 -72.5t112.5 -26.5t112.5 26.5 t92.5 72.5t61.5 107.5t22.5 130.5q0 70 -22.5 131.5t-61.5 107.5t-92.5 72.5t-112.5 26.5t-112.5 -26.5t-92.5 -72.5t-61.5 -107.5t-22.5 -131.5zM389 1452h228l49 -365h-162z" />
<glyph unicode="&#xe1;" horiz-adv-x="1132" d="M61 489q0 106 39 200.5t105.5 164.5t156 110t191.5 40q82 0 157.5 -32t135.5 -100l31 109h167v-981h-167l-31 113q-51 -68 -131 -103t-162 -35q-102 0 -191.5 40t-156 110t-105.5 164t-39 200zM264 489q0 -70 22.5 -131t61.5 -107t92.5 -72.5t112.5 -26.5t112.5 26.5 t92.5 72.5t61.5 107.5t22.5 130.5q0 70 -22.5 131.5t-61.5 107.5t-92.5 72.5t-112.5 26.5t-112.5 -26.5t-92.5 -72.5t-61.5 -107.5t-22.5 -131.5zM471 1087l49 365h227l-114 -365h-162z" />
<glyph unicode="&#xe2;" horiz-adv-x="1132" d="M61 489q0 106 39 200.5t105.5 164.5t156 110t191.5 40q82 0 157.5 -32t135.5 -100l31 109h167v-981h-167l-31 113q-51 -68 -131 -103t-162 -35q-102 0 -191.5 40t-156 110t-105.5 164t-39 200zM258 1196l237 256h187l247 -256h-206l-134 181l-122 -181h-209zM264 489 q0 -70 22.5 -131t61.5 -107t92.5 -72.5t112.5 -26.5t112.5 26.5t92.5 72.5t61.5 107.5t22.5 130.5q0 70 -22.5 131.5t-61.5 107.5t-92.5 72.5t-112.5 26.5t-112.5 -26.5t-92.5 -72.5t-61.5 -107.5t-22.5 -131.5z" />
<glyph unicode="&#xe3;" horiz-adv-x="1132" d="M61 489q0 106 39 200.5t105.5 164.5t156 110t191.5 40q82 0 157.5 -32t135.5 -100l31 109h167v-981h-167l-31 113q-51 -68 -131 -103t-162 -35q-102 0 -191.5 40t-156 110t-105.5 164t-39 200zM198 1274q25 51 76 104t139 70q10 2 19.5 3t19.5 1q53 0 95.5 -20.5 t76.5 -43.5l7 -4l12 -8l6 -4q25 -16 46.5 -26.5t43.5 -10.5q13 0 19 2q41 6 78.5 37t64.5 62q20 -20 41.5 -41t38.5 -43q-14 -23 -35 -48.5t-47.5 -49t-57 -40t-65.5 -22.5q-10 -2 -17.5 -3t-15.5 -1q-45 0 -83 20.5t-72 46.5q-29 20 -59 34.5t-66 14.5q-20 0 -31 -2 q-41 -6 -74 -31.5t-55 -66.5zM264 489q0 -70 22.5 -131t61.5 -107t92.5 -72.5t112.5 -26.5t112.5 26.5t92.5 72.5t61.5 107.5t22.5 130.5q0 70 -22.5 131.5t-61.5 107.5t-92.5 72.5t-112.5 26.5t-112.5 -26.5t-92.5 -72.5t-61.5 -107.5t-22.5 -131.5z" />
<glyph unicode="&#xe4;" horiz-adv-x="1132" d="M61 489q0 106 39 200.5t105.5 164.5t156 110t191.5 40q82 0 157.5 -32t135.5 -100l31 109h167v-981h-167l-31 113q-51 -68 -131 -103t-162 -35q-102 0 -191.5 40t-156 110t-105.5 164t-39 200zM213 1325q0 53 37 90t90 37t90 -37t37 -90t-37 -91t-90 -38t-90 37.5 t-37 91.5zM264 489q0 -70 22.5 -131t61.5 -107t92.5 -72.5t112.5 -26.5t112.5 26.5t92.5 72.5t61.5 107.5t22.5 130.5q0 70 -22.5 131.5t-61.5 107.5t-92.5 72.5t-112.5 26.5t-112.5 -26.5t-92.5 -72.5t-61.5 -107.5t-22.5 -131.5zM686 1325q0 53 37 90t90 37t90 -37t37 -90 t-37 -91t-90 -38t-90 37.5t-37 91.5z" />
<glyph unicode="&#xe5;" horiz-adv-x="1132" d="M61 489q0 106 39 200.5t105.5 164.5t156 110t191.5 40q82 0 157.5 -32t135.5 -100l31 109h167v-981h-167l-31 113q-51 -68 -131 -103t-162 -35q-102 0 -191.5 40t-156 110t-105.5 164t-39 200zM264 489q0 -70 22.5 -131t61.5 -107t92.5 -72.5t112.5 -26.5t112.5 26.5 t92.5 72.5t61.5 107.5t22.5 130.5q0 70 -22.5 131.5t-61.5 107.5t-92.5 72.5t-112.5 26.5t-112.5 -26.5t-92.5 -72.5t-61.5 -107.5t-22.5 -131.5zM354 1276q0 45 17.5 85t46 69.5t68.5 47t87 17.5q45 0 85 -17.5t70 -47t47 -69.5t17 -85t-17 -85t-47 -70t-70 -47t-85 -17 q-47 0 -87 17t-68.5 47t-46 70t-17.5 85zM483 1276q0 -37 25.5 -63.5t64.5 -26.5t63.5 26.5t24.5 63.5q0 39 -24.5 63.5t-63.5 24.5t-64.5 -24.5t-25.5 -63.5z" />
<glyph unicode="&#xe6;" horiz-adv-x="1732" d="M74 258q0 63 25.5 116.5t68.5 93.5t102.5 64.5t126.5 30.5l140 15q68 6 104.5 13t55 16t22.5 22.5t4 34.5q0 31 -18.5 59.5t-49 51t-72.5 35.5t-87 13q-35 0 -66 -6t-59.5 -22.5t-59 -43t-65.5 -65.5l-150 96q82 109 189.5 165.5t226.5 56.5q39 0 84 -7.5t91 -27t88 -51 t73 -80.5q66 76 155 121t193 45q100 0 185 -35t147.5 -109t97.5 -187.5t35 -271.5h-717l10 -61q41 -86 121 -137t178 -51q78 0 144.5 28.5t113.5 75.5l123 -123q-72 -72 -175 -115t-226 -43q-119 0 -220.5 49.5t-172.5 135.5q-18 -20 -53 -52t-87.5 -61t-124 -50.5 t-163.5 -21.5q-72 0 -133.5 15.5t-107.5 49.5t-71.5 87t-25.5 131zM279 268q0 -53 45 -87t120 -34q29 0 76 10.5t92 36t78 68.5t33 109v65q-49 -4 -100 -10q-43 -4 -94.5 -11t-92.5 -12q-43 -6 -72.5 -20t-49 -33.5t-27.5 -41t-8 -40.5zM930 578h518q-4 49 -22.5 94 t-51.5 78.5t-77 53t-101 19.5q-47 0 -89 -18.5t-78 -51t-61.5 -77.5t-37.5 -98z" />
<glyph unicode="&#xe7;" horiz-adv-x="1024" d="M88 489q0 106 39 200.5t105.5 164.5t155.5 110t192 40q119 0 219 -53.5t168 -145.5l-140 -109q-41 59 -103 95t-134 36q-61 0 -116.5 -26.5t-96.5 -72.5t-64.5 -107.5t-23.5 -131.5t23.5 -131t64.5 -107t96 -72.5t117 -26.5q80 0 145.5 43t106.5 114l135 -119 q-63 -94 -158.5 -150t-212.5 -63l-45 -73q96 18 143.5 -19t47.5 -98q0 -78 -57.5 -113.5t-135.5 -35.5q-23 0 -51.5 2t-48.5 6q4 16 8 34.5t8 34.5q10 -2 22.5 -3t28.5 -1q43 0 75 15.5t32 50.5q0 29 -19.5 45t-54.5 16q-37 0 -70 -18l-59 57l72 105q-88 14 -164 58 t-131 111.5t-87 154.5t-32 183z" />
<glyph unicode="&#xe8;" horiz-adv-x="1138" d="M88 489q0 106 37.5 200.5t102 164.5t150.5 110t185 40q100 0 185 -35t147.5 -109t97.5 -187.5t35 -271.5h-729q14 -53 44.5 -99t72.5 -80t94.5 -52t109.5 -18q78 0 144.5 28.5t113.5 75.5l123 -123q-72 -72 -175 -115t-226 -43q-106 0 -199.5 40t-163.5 110t-109.5 164 t-39.5 200zM296 578h519q-4 49 -22.5 94t-51.5 78.5t-77 53t-101 19.5q-47 0 -89 -18.5t-78 -51t-61.5 -77.5t-38.5 -98zM409 1452h228l49 -365h-162z" />
<glyph unicode="&#xe9;" horiz-adv-x="1138" d="M88 489q0 106 37.5 200.5t102 164.5t150.5 110t185 40q100 0 185 -35t147.5 -109t97.5 -187.5t35 -271.5h-729q14 -53 44.5 -99t72.5 -80t94.5 -52t109.5 -18q78 0 144.5 28.5t113.5 75.5l123 -123q-72 -72 -175 -115t-226 -43q-106 0 -199.5 40t-163.5 110t-109.5 164 t-39.5 200zM296 578h519q-4 49 -22.5 94t-51.5 78.5t-77 53t-101 19.5q-47 0 -89 -18.5t-78 -51t-61.5 -77.5t-38.5 -98zM430 1087l49 365h227l-114 -365h-162z" />
<glyph unicode="&#xea;" horiz-adv-x="1138" d="M88 489q0 106 37.5 200.5t102 164.5t150.5 110t185 40q100 0 185 -35t147.5 -109t97.5 -187.5t35 -271.5h-729q14 -53 44.5 -99t72.5 -80t94.5 -52t109.5 -18q78 0 144.5 28.5t113.5 75.5l123 -123q-72 -72 -175 -115t-226 -43q-106 0 -199.5 40t-163.5 110t-109.5 164 t-39.5 200zM254 1196l237 256h187l247 -256h-206l-134 181l-122 -181h-209zM296 578h519q-4 49 -22.5 94t-51.5 78.5t-77 53t-101 19.5q-47 0 -89 -18.5t-78 -51t-61.5 -77.5t-38.5 -98z" />
<glyph unicode="&#xeb;" horiz-adv-x="1138" d="M88 489q0 106 37.5 200.5t102 164.5t150.5 110t185 40q100 0 185 -35t147.5 -109t97.5 -187.5t35 -271.5h-729q14 -53 44.5 -99t72.5 -80t94.5 -52t109.5 -18q78 0 144.5 28.5t113.5 75.5l123 -123q-72 -72 -175 -115t-226 -43q-106 0 -199.5 40t-163.5 110t-109.5 164 t-39.5 200zM205 1325q0 53 37 90t90 37t90 -37t37 -90t-37 -91t-90 -38t-90 37.5t-37 91.5zM296 578h519q-4 49 -22.5 94t-51.5 78.5t-77 53t-101 19.5q-47 0 -89 -18.5t-78 -51t-61.5 -77.5t-38.5 -98zM678 1325q0 53 37 90t90 37t90 -37t37 -90t-37 -91t-90 -38t-90 37.5 t-37 91.5z" />
<glyph unicode="&#xec;" horiz-adv-x="516" d="M75 1452h228l49 -365h-162zM182 0v981h197l2 -981h-199z" />
<glyph unicode="&#xed;" horiz-adv-x="516" d="M182 0v981h197l2 -981h-199zM197 1087l49 365h227l-114 -365h-162z" />
<glyph unicode="&#xee;" horiz-adv-x="516" d="M-77 1196l237 256h187l247 -256h-206l-134 181l-122 -181h-209zM162 0v981h197l2 -981h-199z" />
<glyph unicode="&#xef;" horiz-adv-x="516" d="M-104 1325q0 53 37 90t90 37t90 -37t37 -90t-37 -91t-90 -38t-90 37.5t-37 91.5zM172 0v981h197l2 -981h-199zM369 1325q0 53 37 90t90 37t90 -37t37 -90t-37 -91t-90 -38t-90 37.5t-37 91.5z" />
<glyph unicode="&#xf1;" horiz-adv-x="1093" d="M111 0v981h157l41 -86q49 47 119 78t152 31q53 0 120.5 -16.5t126 -61.5t98.5 -125t40 -207v-594h-189v596q0 63 -19.5 107.5t-51 71t-71.5 37.5t-83 11q-33 0 -75 -12t-79 -40t-62.5 -70t-25.5 -103v-598h-198zM155 1274q25 51 76 104t139 70q10 2 19.5 3t19.5 1 q53 0 95.5 -20.5t76.5 -43.5l7 -4l12 -8l6 -4q25 -16 46.5 -26.5t43.5 -10.5q13 0 19 2q41 6 78.5 37t64.5 62q20 -20 41.5 -41t38.5 -43q-14 -23 -35 -48.5t-47.5 -49t-57 -40t-65.5 -22.5q-10 -2 -17.5 -3t-15.5 -1q-45 0 -83 20.5t-72 46.5q-29 20 -59 34.5t-66 14.5 q-20 0 -31 -2q-41 -6 -74 -31.5t-55 -66.5z" />
<glyph unicode="&#xf2;" horiz-adv-x="1142" d="M73 489q0 106 39 200.5t105.5 164.5t155.5 110t192 40q100 0 190 -40t156.5 -110t105.5 -164t39 -201q0 -106 -39 -200t-105.5 -164t-156.5 -110t-190 -40q-102 0 -191.5 40t-156 110t-105.5 164t-39 200zM274 489q0 -70 22.5 -131t62.5 -107t93 -72.5t113 -26.5 q59 0 112.5 26.5t92 72.5t61.5 107.5t23 130.5q0 70 -23 131.5t-61.5 106.5t-92 71.5t-112.5 26.5t-112.5 -26.5t-93.5 -71.5t-62.5 -106.5t-22.5 -131.5zM432 1452h228l49 -365h-162z" />
<glyph unicode="&#xf3;" horiz-adv-x="1142" d="M73 489q0 106 39 200.5t105.5 164.5t155.5 110t192 40q100 0 190 -40t156.5 -110t105.5 -164t39 -201q0 -106 -39 -200t-105.5 -164t-156.5 -110t-190 -40q-102 0 -191.5 40t-156 110t-105.5 164t-39 200zM274 489q0 -70 22.5 -131t62.5 -107t93 -72.5t113 -26.5 q59 0 112.5 26.5t92 72.5t61.5 107.5t23 130.5q0 70 -23 131.5t-61.5 106.5t-92 71.5t-112.5 26.5t-112.5 -26.5t-93.5 -71.5t-62.5 -106.5t-22.5 -131.5zM432 1087l49 365h227l-114 -365h-162z" />
<glyph unicode="&#xf4;" horiz-adv-x="1142" d="M73 489q0 106 39 200.5t105.5 164.5t155.5 110t192 40q100 0 190 -40t156.5 -110t105.5 -164t39 -201q0 -106 -39 -200t-105.5 -164t-156.5 -110t-190 -40q-102 0 -191.5 40t-156 110t-105.5 164t-39 200zM236 1196l237 256h187l247 -256h-206l-134 181l-122 -181h-209z M274 489q0 -70 22.5 -131t62.5 -107t93 -72.5t113 -26.5q59 0 112.5 26.5t92 72.5t61.5 107.5t23 130.5q0 70 -23 131.5t-61.5 106.5t-92 71.5t-112.5 26.5t-112.5 -26.5t-93.5 -71.5t-62.5 -106.5t-22.5 -131.5z" />
<glyph unicode="&#xf5;" horiz-adv-x="1142" d="M73 489q0 106 39 200.5t105.5 164.5t155.5 110t192 40q100 0 190 -40t156.5 -110t105.5 -164t39 -201q0 -106 -39 -200t-105.5 -164t-156.5 -110t-190 -40q-102 0 -191.5 40t-156 110t-105.5 164t-39 200zM180 1274q25 51 76 104t139 70q10 2 19.5 3t19.5 1 q53 0 95.5 -20.5t76.5 -43.5l7 -4l12 -8l6 -4q25 -16 46.5 -26.5t43.5 -10.5q13 0 19 2q41 6 78.5 37t64.5 62q20 -20 41.5 -41t38.5 -43q-14 -23 -35 -48.5t-47.5 -49t-57 -40t-65.5 -22.5q-10 -2 -17.5 -3t-15.5 -1q-45 0 -83 20.5t-72 46.5q-29 20 -59 34.5t-66 14.5 q-20 0 -31 -2q-41 -6 -74 -31.5t-55 -66.5zM274 489q0 -70 22.5 -131t62.5 -107t93 -72.5t113 -26.5q59 0 112.5 26.5t92 72.5t61.5 107.5t23 130.5q0 70 -23 131.5t-61.5 106.5t-92 71.5t-112.5 26.5t-112.5 -26.5t-93.5 -71.5t-62.5 -106.5t-22.5 -131.5z" />
<glyph unicode="&#xf6;" horiz-adv-x="1105" d="M63 489q0 106 39 200.5t105.5 164.5t155.5 110t192 40q100 0 190 -40t156.5 -110t105.5 -164t39 -201q0 -106 -39 -200t-105.5 -164t-156.5 -110t-190 -40q-102 0 -191.5 40t-156 110t-105.5 164t-39 200zM197 1325q0 53 37 90t90 37t90 -37t37 -90t-37 -91t-90 -38 t-90 37.5t-37 91.5zM264 489q0 -70 22.5 -131t62.5 -107t93 -72.5t113 -26.5q59 0 112.5 26.5t92 72.5t61.5 107.5t23 130.5q0 70 -23 131.5t-61.5 106.5t-92 71.5t-112.5 26.5t-112.5 -26.5t-93.5 -71.5t-62.5 -106.5t-22.5 -131.5zM670 1325q0 53 37 90t90 37t90 -37 t37 -90t-37 -91t-90 -38t-90 37.5t-37 91.5z" />
<glyph unicode="&#xf7;" horiz-adv-x="1058" d="M14 362v136h1030v-136h-1030zM395 106q0 53 37 91.5t90 38.5t90 -38t37 -92q0 -53 -37 -89.5t-90 -36.5t-90 36.5t-37 89.5zM395 741q0 53 37 91t90 38t91 -37.5t38 -91.5q0 -53 -38 -90t-91 -37t-90 37t-37 90z" />
<glyph unicode="&#xf8;" horiz-adv-x="1097" d="M57 489q0 106 39 200.5t105.5 164.5t155.5 110t192 40q102 0 199 -46l67 115l117 -69l-70 -119q82 -72 130 -173.5t48 -222.5q0 -106 -38.5 -200t-105.5 -164t-157 -110t-190 -40q-106 0 -203 45l-55 -92l-117 70l57 98q-80 72 -127 173.5t-47 219.5zM258 489 q0 -66 19.5 -123t54.5 -102l321 539q-51 22 -104 22q-59 0 -112.5 -26.5t-93.5 -71.5t-62.5 -106.5t-22.5 -131.5zM438 176q51 -25 111 -24q59 0 112.5 26.5t92.5 72.5t61.5 107t22.5 131q0 66 -21.5 124.5t-56.5 103.5z" />
<glyph unicode="&#xf9;" horiz-adv-x="1095" d="M121 385v596h188v-596q0 -63 19.5 -107.5t51.5 -71t73 -38.5t84 -12q33 0 74.5 12t78.5 40t62.5 71t25.5 104v598h199v-981h-158l-41 88q-51 -47 -119.5 -77.5t-152.5 -30.5q-53 0 -121 15t-126 60t-98 124t-40 206zM409 1452h228l49 -365h-162z" />
<glyph unicode="&#xfa;" horiz-adv-x="1095" d="M121 385v596h188v-596q0 -63 19.5 -107.5t51.5 -71t73 -38.5t84 -12q33 0 74.5 12t78.5 40t62.5 71t25.5 104v598h199v-981h-158l-41 88q-51 -47 -119.5 -77.5t-152.5 -30.5q-53 0 -121 15t-126 60t-98 124t-40 206zM410 1087l49 365h227l-114 -365h-162z" />
<glyph unicode="&#xfb;" horiz-adv-x="1095" d="M121 385v596h188v-596q0 -63 19.5 -107.5t51.5 -71t73 -38.5t84 -12q33 0 74.5 12t78.5 40t62.5 71t25.5 104v598h199v-981h-158l-41 88q-51 -47 -119.5 -77.5t-152.5 -30.5q-53 0 -121 15t-126 60t-98 124t-40 206zM211 1196l237 256h187l247 -256h-206l-134 181 l-122 -181h-209z" />
<glyph unicode="&#xfc;" horiz-adv-x="1110" d="M121 385v596h188v-596q0 -63 19.5 -107.5t51.5 -71t73 -38.5t84 -12q33 0 74.5 12t78.5 40t62.5 71t25.5 104v598h199v-981h-158l-41 88q-51 -47 -119.5 -77.5t-152.5 -30.5q-53 0 -121 15t-126 60t-98 124t-40 206zM188 1325q0 53 37 90t90 37t90 -37t37 -90t-37 -91 t-90 -38t-90 37.5t-37 91.5zM661 1325q0 53 37 90t90 37t90 -37t37 -90t-37 -91t-90 -38t-90 37.5t-37 91.5z" />
<glyph unicode="&#xff;" horiz-adv-x="1095" d="M20 981h222l303 -637l297 637h219l-633 -1372h-219l227 502zM184 1323q0 53 37 90t90 37t90 -37t37 -90t-37 -91t-90 -38t-90 37.5t-37 91.5zM657 1323q0 53 37 90t90 37t90 -37t37 -90t-37 -91t-90 -38t-90 37.5t-37 91.5z" />
<glyph unicode="&#x152;" horiz-adv-x="2099" d="M68 727q0 152 56 288t154.5 237.5t229.5 161t278 59.5q96 0 185.5 -26t167.5 -73v78h886v-192h-673v-396h600v-198h-600v-467h673v-199h-886v80q-80 -47 -169 -72.5t-186 -25.5q-147 0 -278 59t-228.5 160.5t-153.5 236.5t-56 289zM285 727q0 -113 40 -212t107.5 -173 t158.5 -116t195 -42t194.5 42t158.5 116v768q-68 74 -158 116t-195 42q-104 0 -195 -42t-158.5 -116t-107.5 -172t-40 -211z" />
<glyph unicode="&#x153;" horiz-adv-x="1867" d="M74 489q0 106 39 200.5t105.5 164.5t155.5 110t191 40q119 0 219.5 -54.5t167.5 -146.5q66 92 164 146.5t213 54.5q100 0 185 -35t147.5 -109t97.5 -187.5t35 -271.5h-729q14 -53 45 -99t73 -80t94 -52t109 -18q78 0 144.5 28.5t114.5 75.5l122 -123q-72 -72 -175 -115 t-226 -43q-127 0 -232.5 55.5t-177.5 147.5q-68 -92 -169 -147.5t-222 -55.5q-102 0 -191 40t-155.5 110t-105.5 164t-39 200zM274 489q0 -70 22.5 -131t62.5 -107t93.5 -72.5t112.5 -26.5q57 0 109.5 25.5t91.5 68.5t62.5 102.5t25.5 126.5v29q-2 68 -25.5 126t-62.5 102 t-91.5 68.5t-109.5 24.5q-59 0 -112.5 -26.5t-93.5 -71.5t-62.5 -106.5t-22.5 -131.5zM1063 578h518q-4 49 -22.5 94t-51 78.5t-77 53t-101.5 19.5q-47 0 -89 -18.5t-78 -51t-61.5 -77.5t-37.5 -98z" />
<glyph unicode="&#x178;" horiz-adv-x="1284" d="M18 1452h256l363 -545l362 545h258l-512 -772v-680h-215v680zM279 1678q0 53 37 90t90 37t90 -37t37 -90t-37 -91t-90 -38t-90 37.5t-37 91.5zM752 1678q0 53 37 90t90 37t90 -37t37 -90t-37 -91t-90 -38t-90 37.5t-37 91.5z" />
<glyph unicode="&#x2c6;" horiz-adv-x="735" d="M27 1548l237 256h187l247 -256h-206l-134 181l-122 -181h-209z" />
<glyph unicode="&#x2dc;" horiz-adv-x="907" d="M61 1612q25 51 76 104t139 70q10 2 19.5 3t19.5 1q53 0 95.5 -20.5t76.5 -43.5l7 -4l12 -8l6 -4q25 -16 46.5 -26.5t43.5 -10.5q13 0 19 2q41 6 78.5 37t64.5 62q20 -20 41.5 -41t38.5 -43q-14 -23 -35 -48.5t-47.5 -49t-57 -40t-65.5 -22.5q-10 -2 -17.5 -3t-15.5 -1 q-45 0 -83 20.5t-72 46.5q-29 20 -59 34.5t-66 14.5q-20 0 -31 -2q-41 -6 -74 -31.5t-55 -66.5z" />
<glyph unicode="&#x2000;" horiz-adv-x="956" />
<glyph unicode="&#x2001;" horiz-adv-x="1913" />
<glyph unicode="&#x2002;" horiz-adv-x="956" />
<glyph unicode="&#x2003;" horiz-adv-x="1913" />
<glyph unicode="&#x2004;" horiz-adv-x="637" />
<glyph unicode="&#x2005;" horiz-adv-x="478" />
<glyph unicode="&#x2006;" horiz-adv-x="318" />
<glyph unicode="&#x2007;" horiz-adv-x="318" />
<glyph unicode="&#x2008;" horiz-adv-x="239" />
<glyph unicode="&#x2009;" horiz-adv-x="382" />
<glyph unicode="&#x200a;" horiz-adv-x="106" />
<glyph unicode="&#x2010;" horiz-adv-x="788" d="M94 535v135h602v-135h-602z" />
<glyph unicode="&#x2011;" horiz-adv-x="788" d="M94 535v135h602v-135h-602z" />
<glyph unicode="&#x2012;" horiz-adv-x="788" d="M94 535v135h602v-135h-602z" />
<glyph unicode="&#x2013;" horiz-adv-x="1431" d="M90 479v135h1251v-135h-1251z" />
<glyph unicode="&#x2014;" horiz-adv-x="1624" d="M90 479v135h1444v-135h-1444z" />
<glyph unicode="&#x2018;" horiz-adv-x="401" d="M41 1450h164l133 -502h-229z" />
<glyph unicode="&#x2019;" horiz-adv-x="419" d="M66 950l67 502h229l-133 -502h-163z" />
<glyph unicode="&#x201a;" horiz-adv-x="393" d="M59 -262l68 504h231l-133 -504h-166z" />
<glyph unicode="&#x201c;" horiz-adv-x="765" d="M66 1450h163l133 -502h-229zM389 1450h164l133 -502h-229z" />
<glyph unicode="&#x201d;" horiz-adv-x="763" d="M80 950l67 502h230l-133 -502h-164zM401 950l68 502h229l-133 -502h-164z" />
<glyph unicode="&#x201e;" horiz-adv-x="800" d="M76 -262l67 504h232l-133 -504h-166zM440 -262l68 504h231l-133 -504h-166z" />
<glyph unicode="&#x2022;" horiz-adv-x="606" d="M68 565q0 100 67 166q70 68 168 68q96 0 168 -68q68 -66 68 -166q0 -98 -68 -162q-72 -68 -168 -67q-96 -1 -168 65q-68 68 -67 164z" />
<glyph unicode="&#x2026;" horiz-adv-x="1318" d="M84 106q0 53 37 91.5t90 38.5t90 -38t37 -92q0 -53 -37 -89.5t-90 -36.5t-90 36.5t-37 89.5zM532 106q0 53 37 91.5t90 38.5t90 -38t37 -92q0 -53 -36.5 -89.5t-90.5 -36.5q-53 0 -90 36.5t-37 89.5zM981 106q0 53 37 91.5t90 38.5t90 -38t37 -92q0 -53 -37 -89.5 t-90 -36.5t-90 36.5t-37 89.5z" />
<glyph unicode="&#x202f;" horiz-adv-x="382" />
<glyph unicode="&#x205f;" horiz-adv-x="478" />
<glyph unicode="&#x2122;" horiz-adv-x="1347" d="M59 1339v113h447v-113h-164v-518h-121v518h-162zM594 821v631h113l200 -274l201 274h115v-631h-125v424l-148 -205h-84l-151 205v-424h-121z" />
<glyph unicode="&#x25fc;" horiz-adv-x="983" d="M0 0v983h983v-983h-983z" />
</font>
</defs>
</svg>
